<svg xml:space="preserve" style="enable-background:new 0 0 2081.1 546.2;" viewBox="0 0 2081.1 546.2" y="0px" x="0px" xmlns:xlink="http://www.w3.org/1999/xlink" xmlns="http://www.w3.org/2000/svg" version="1.1" width="2081.1" height="546.2">
<style type="text/css">
	.st0{fill:#0C406C;}
	.st1{font-family:'PublicSans-Regular';}
	.st2{font-size:100px;}
	.st3{letter-spacing:2;}
</style>
<g id="Layer_1">
	<g id="Layer_1_00000119812493514388896320000007005354321730879881_">
		<g id="Layer_1_00000146473217764621136420000004340313502745979268_">
		</g>
		<g id="Layer_2_00000126322541621938746140000002889146923552450491_">
			<g>
				<path d="M1813.7,228.9l-8.6-19l-8.6,19l-8.4,18.6c-4.5,9.8-3.7,21.3,2.2,30.4l6.2,9.7l8.6,13.5
					l8.6-13.5l6.2-9.7c5.9-9.1,6.7-20.5,2.2-30.4L1813.7,228.9z" class="st0" id="Path_2382"></path>
				<path d="M1812.5,130.3l-7.4-15.3l-7.4,15.3l-7.3,14.9c-3.9,7.9-3.1,17.3,1.9,24.4l5.3,7.8l7.4,10.9
					l7.4-10.9l5.3-7.8c5.1-7.2,5.8-16.6,1.9-24.4L1812.5,130.3z" class="st0" id="Path_2383"></path>
				<path d="M1808.8,74.5l-3.7-7.6l-3.7,7.6l-3.6,7.4c-1.9,3.9-1.6,8.5,0.9,12.1l2.6,3.9l3.7,5.4
					l3.7-5.4l2.6-3.9c2.5-3.6,2.9-8.2,0.9-12.1L1808.8,74.5z" class="st0" id="Path_2384"></path>
				<path d="M1772.6,92.5l-8.8-14.7l-6,15.7l-5.9,15.4c-3.1,8.2-1.5,17.5,4.1,24.2l6,7.5l8.4,10.4
					l6.4-11.4l4.6-8.2c4.4-7.6,4.3-17-0.3-24.5L1772.6,92.5z" class="st0" id="Path_2385"></path>
				<path d="M1783.1,294.6c-8.5-7.4-13.6-17.9-14.2-29.1c-1.1-19.1,3.3-29.8-18.6-54.2
					c0,0,0.4,21.1-5.8,37.8S1751.7,295.9,1783.1,294.6" class="st0" id="Path_2386"></path>
				<path d="M1764.5,300.1c0,0-17.1-3.1-32.4-26.2s-37.5-35.6-66.3-29c0,0,15.7,10.3,31,30
					C1712,294.5,1736.4,306.4,1764.5,300.1" class="st0" id="Path_2387"></path>
				<path d="M1778.7,230.2c0,0-4-10.9-14.9-24s2.2-34,7.7-40.9c0,0,3.3,7.5,12.4,19.3
					C1792.9,196.5,1791.5,206.2,1778.7,230.2" class="st0" id="Path_2388"></path>
				<path d="M1747.4,188.1c0,0-0.4-3.4,5.8-15.6c6.2-12.2,0-28.4-17.1-40.9c-1.6,7.7-3.7,15.3-6.2,22.8
					C1725.9,166,1731.3,176.3,1747.4,188.1" class="st0" id="Path_2389"></path>
				<path d="M1699.8,195.6c0,0-1.5-3.2,0.3-16.4s-9.6-27.2-30.2-34.9c1.1,7.7,1.7,15.5,1.7,23.3
					C1671.8,179.7,1680.5,188.2,1699.8,195.6" class="st0" id="Path_2390"></path>
				<path d="M1717,236.4c0,0-3.1-2.2-9.1-14.4c-5.9-12.3-23.9-19.7-46.3-17.8
					c5.3,6.3,10.3,12.8,14.9,19.6C1683.5,234.3,1695.9,238.1,1717,236.4" class="st0" id="Path_2391"></path>
				<path d="M1732.4,234.6c6-9.8,7.4-21.8,3.6-32.8c-3.9-11.9-22.6-31.2-22.6-31.2
					S1697.8,215,1732.4,234.6" class="st0" id="Path_2392"></path>
				<path d="M1837.4,92.5l8.8-14.7l6,15.7l5.9,15.4c3.1,8.2,1.5,17.5-4.1,24.2l-6,7.5l-8.4,10.4
					l-6.4-11.4l-4.6-8.2c-4.4-7.6-4.3-17,0.3-24.5L1837.4,92.5z" class="st0" id="Path_2393"></path>
				<path d="M1827,294.6c8.5-7.4,13.6-17.9,14.2-29.1c1.1-19.1-3.3-29.8,18.6-54.2
					c0,0-0.4,21.1,5.8,37.8S1858.3,295.9,1827,294.6" class="st0" id="Path_2394"></path>
				<path d="M1845.6,300.1c0,0,17.1-3.1,32.4-26.2s37.5-35.6,66.3-29c0,0-15.7,10.3-31,30
					S1873.6,306.4,1845.6,300.1" class="st0" id="Path_2395"></path>
				<path d="M1831.4,230.2c0,0,4-10.9,14.9-24s-2.2-34-7.7-40.9c0,0-3.3,7.5-12.4,19.3
					C1817.2,196.5,1818.6,206.2,1831.4,230.2" class="st0" id="Path_2396"></path>
				<path d="M1862.7,188.1c0,0,0.4-3.4-5.8-15.6c-6.2-12.2,0-28.4,17.1-40.9c1.6,7.7,3.7,15.3,6.2,22.8
					C1884.2,166,1878.7,176.3,1862.7,188.1" class="st0" id="Path_2397"></path>
				<path d="M1890.9,154.1c0,0,0.8-2.8-2.4-13.6s4.4-23.3,20.5-31.3c0.1,6.5,0.6,13.1,1.6,19.6
					C1912.1,138.7,1906,146.5,1890.9,154.1" class="st0" id="Path_2398"></path>
				<path d="M1893.1,236.4c0,0,3.1-2.2,9.1-14.4c5.9-12.3,23.9-19.7,46.3-17.8
					c-5.3,6.3-10.3,12.8-14.9,19.6C1926.6,234.3,1914.2,238.1,1893.1,236.4" class="st0" id="Path_2399"></path>
				<path d="M1877.7,234.6c-6-9.8-7.4-21.8-3.6-32.8c3.9-11.9,22.6-31.2,22.6-31.2
					S1912.3,215,1877.7,234.6" class="st0" id="Path_2400"></path>
				<path d="M1720.1,154.1c0,0-0.8-2.8,2.4-13.6s-4.4-23.3-20.5-31.3c-0.1,6.5-0.6,13.1-1.6,19.6
					C1699,138.7,1705.1,146.5,1720.1,154.1" class="st0" id="Path_2401"></path>
				<path d="M1837.5,312.4c0,0-12.6,24.9-10.5,101.3c0.9,33.4,14.1,132.5,14.1,132.5h-72
					c0,0,12.8-92.3,14.1-132.5c2.1-68.3-10.5-101.3-10.5-101.3l32.2,10.6L1837.5,312.4z" class="st0" id="Path_2402"></path>
				<path d="M1805,58.5c-1.5-4.8-2.4-9.7-3-14.6c-0.5-4.9-0.8-9.7-0.8-14.6s0.3-9.8,0.8-14.6
					c0.5-5,1.5-9.9,3-14.6c1.5,4.8,2.5,9.7,3,14.6s0.8,9.7,0.8,14.6s-0.3,9.8-0.8,14.6C1807.5,48.8,1806.5,53.7,1805,58.5" class="st0" id="Path_2403"></path>
				<path d="M1790.4,71.9c-2-4.5-3.6-9.1-4.7-13.9c-2.3-9.4-3.5-18.9-3.6-28.6
					c-0.1-4.9,0.3-9.8,1.2-14.7c2,4.5,3.6,9.1,4.7,13.9c1.1,4.7,2,9.4,2.6,14.2s0.9,9.6,1,14.4C1791.6,62.2,1791.2,67.1,1790.4,71.9" class="st0" id="Path_2404"></path>
				<path d="M1774.5,68.1c-2.4-3.6-4.5-7.5-6-11.6c-1.6-4-2.9-8-4-12.1s-1.9-8.3-2.4-12.5
					c-0.6-4.3-0.7-8.7-0.3-13.1c2.4,3.6,4.5,7.5,6.1,11.6c1.6,4,2.9,8,4,12.1s1.9,8.3,2.4,12.5C1774.8,59.4,1774.9,63.8,1774.5,68.1" class="st0" id="Path_2405"></path>
				<path d="M1757.6,67.4c-2.7-2.8-5-6-6.9-9.4c-1.9-3.3-3.5-6.7-4.9-10.2s-2.5-7.1-3.4-10.8
					c-0.9-3.8-1.4-7.7-1.4-11.6c2.7,2.8,5,6,6.9,9.4c1.9,3.3,3.5,6.7,4.9,10.2s2.5,7.1,3.4,10.8
					C1757.1,59.6,1757.6,63.5,1757.6,67.4" class="st0" id="Path_2406"></path>
				<path d="M1746.5,80.7c-3.3-3-6.3-6.4-8.9-10c-2.6-3.5-4.9-7.2-7-11.1c-2.1-3.8-4-7.8-5.6-11.9
					c-1.7-4.2-2.9-8.5-3.7-12.9c3.3,3,6.3,6.4,8.9,10c2.6,3.5,4.9,7.2,7,11.1c2.1,3.8,4,7.8,5.6,11.9
					C1744.5,71.9,1745.7,76.3,1746.5,80.7" class="st0" id="Path_2407"></path>
				<path d="M1739.8,98.2c-4.2-3.4-8.1-7.1-11.7-11.2c-3.5-4-6.8-8.1-9.9-12.5c-3.1-4.3-6-8.8-8.6-13.4
					c-2.7-4.7-5-9.6-6.8-14.7c4.2,3.4,8.1,7.1,11.7,11.2c3.5,4,6.8,8.1,9.9,12.5c3.1,4.3,6,8.8,8.6,13.4
					C1735.7,88.2,1738,93.2,1739.8,98.2" class="st0" id="Path_2408"></path>
				<path d="M1731,116.2c-4.5-4.1-8.6-8.6-12.4-13.3l-11.2-13.8l-11.1-13.8c-3.9-4.7-7.3-9.7-10.4-15
					c5.2,3.2,10.1,6.9,14.7,10.9s8.9,8.4,12.7,13.2c3.8,4.8,7.3,9.8,10.2,15.2C1726.4,104.9,1729,110.5,1731,116.2" class="st0" id="Path_2409"></path>
				<path d="M1819.8,71.9c-0.9-4.8-1.2-9.7-1.1-14.7c0.1-4.8,0.4-9.6,1-14.4s1.4-9.5,2.6-14.2
					c1.1-4.8,2.7-9.4,4.7-13.9c0.9,4.8,1.3,9.7,1.2,14.7c-0.1,4.8-0.4,9.6-1,14.4s-1.5,9.5-2.6,14.2
					C1823.4,62.8,1821.9,67.4,1819.8,71.9" class="st0" id="Path_2410"></path>
				<path d="M1835.7,68.1c-0.4-4.4-0.3-8.7,0.3-13.1c0.5-4.2,1.3-8.4,2.4-12.5s2.4-8.2,4-12.1
					c1.6-4.1,3.6-8,6.1-11.6c0.4,4.4,0.3,8.7-0.3,13.1c-0.5,4.2-1.3,8.4-2.4,12.5s-2.4,8.2-4,12.1
					C1840.2,60.6,1838.2,64.5,1835.7,68.1" class="st0" id="Path_2411"></path>
				<path d="M1852.6,67.4c0-3.9,0.5-7.8,1.4-11.6c0.9-3.7,2-7.3,3.4-10.8s3-6.9,4.9-10.2
					c1.9-3.4,4.2-6.6,6.9-9.4c0,3.9-0.5,7.8-1.4,11.6c-0.9,3.7-2,7.3-3.4,10.8s-3,6.9-4.9,10.2C1857.6,61.4,1855.3,64.6,1852.6,67.4" class="st0" id="Path_2412"></path>
				<path d="M1863.7,80.7c0.8-4.4,2-8.7,3.7-12.9c1.6-4.1,3.5-8,5.6-11.9c2.1-3.8,4.4-7.5,7-11.1
					c2.6-3.7,5.6-7,8.9-10c-0.8,4.4-2,8.7-3.7,12.9c-1.6,4.1-3.5,8-5.6,11.9c-2.1,3.8-4.5,7.5-7,11.1
					C1870,74.3,1867,77.7,1863.7,80.7" class="st0" id="Path_2413"></path>
				<path d="M1870.4,98.2c1.8-5.1,4.1-10,6.9-14.7c2.6-4.6,5.5-9.1,8.6-13.4s6.4-8.5,9.9-12.5
					c3.5-4.1,7.5-7.8,11.7-11.2c-1.8,5.1-4.1,10-6.8,14.7c-2.6,4.6-5.5,9.1-8.6,13.4s-6.4,8.5-9.9,12.5
					C1878.5,91.1,1874.6,94.8,1870.4,98.2" class="st0" id="Path_2414"></path>
				<path d="M1879.2,116.2c2.1-5.7,4.6-11.3,7.5-16.6c5.9-10.7,13.7-20.3,22.9-28.4
					c4.6-4,9.5-7.6,14.7-10.9c-3.1,5.3-6.5,10.3-10.4,15l-11.1,13.8l-11.2,13.8C1887.8,107.6,1883.7,112.1,1879.2,116.2" class="st0" id="Path_2415"></path>
				<path d="M1910.3,195.1c0,0,1.5-3.2-0.3-16.4s9.6-27.2,30.2-34.9c-1.1,7.7-1.7,15.5-1.7,23.3
					C1938.3,179.2,1929.6,187.7,1910.3,195.1" class="st0" id="Path_2416"></path>
				<path d="M1641.5,344.7c0,0,24.6,9.2,72.9,58.3c20.3,20.6,35.9,37.7,45.7,51.6
					c-6.8-51.7-31.2-95.4-72.4-129.3c-6.5-5.8-13.4-11.2-20.6-16.1c-27.5-18.7-41-48-41-48s0,23.8,0.4,26.3
					c-2.8-1.3-5.4-2.6-8.1-3.9c-12.8-9.2-36.8-31.1-45-54.1c-1.8,7.8-2.9,15.7-3.4,23.7c-21.7-17.2-35.5-34.1-44-46.9
					c1.4,33.1,10,65.5,25,95c-2.7-1.9-18.1-13-23.7-19.4c0,0,9.7,36.5,36.9,62.8c15.6,15,33.6,27.2,53.3,36.1
					c0.5,0.4,0.9,0.7,1.4,1.1l-24.9-2.5c0,0,19.3,20.6,60.2,40.4c32,15.5,59.4,25.9,84.8,44.7
					C1719.8,434.6,1688.1,386.8,1641.5,344.7" class="st0" id="Path_2417"></path>
				<path d="M1965.6,344.7c0,0-24.6,9.2-72.9,58.3c-20.3,20.6-35.9,37.7-45.7,51.6
					c6.8-51.7,31.2-95.4,72.4-129.3c6.5-5.8,13.4-11.2,20.6-16.1c27.5-18.7,41-48,41-48s0,23.8-0.4,26.3c2.8-1.3,5.4-2.6,8.1-3.9
					c12.8-9.2,36.8-31.1,45-54.1c1.8,7.8,2.9,15.7,3.4,23.7c21.7-17.1,35.6-34,44.1-46.8c-1.4,33.1-10,65.5-25,95
					c2.7-1.9,18.1-13,23.7-19.4c0,0-9.7,36.5-36.9,62.8c-15.6,15-33.6,27.2-53.3,36.1c-0.5,0.4-0.9,0.7-1.4,1.1l24.9-2.5
					c0,0-19.3,20.6-60.2,40.4c-32,15.5-59.4,25.9-84.8,44.7C1887.3,434.6,1919.1,386.8,1965.6,344.7" class="st0" id="Path_2418"></path>
			</g>
		</g>
	</g>
	<g id="Layer_1_00000086680213701932848420000007074169895156506258_">
		<g id="Layer_1_00000142178413215071840070000011035095297903386251_">
		</g>
		<g id="Layer_2_00000010302015363762475210000010014180503375000504_">
			<g>
				<path d="M1813.6,228.8l-8.6-19l-8.6,19
					l-8.4,18.6c-4.5,9.8-3.7,21.3,2.2,30.4l6.2,9.7l8.6,13.5l8.6-13.5l6.2-9.7c5.9-9.1,6.7-20.5,2.2-30.4L1813.6,228.8z" class="st0" id="Path_2382_00000060021795317839221790000012781694120987617459_"></path>
				<path d="M1812.4,130.2l-7.4-15.3l-7.4,15.3
					l-7.3,14.9c-3.9,7.9-3.1,17.3,1.9,24.4l5.3,7.8l7.4,10.9l7.4-10.9l5.3-7.8c5.1-7.2,5.8-16.6,1.9-24.4L1812.4,130.2z" class="st0" id="Path_2383_00000078029181138256607280000005281150216565664933_"></path>
				<path d="M1808.7,74.4l-3.7-7.6l-3.7,7.6
					l-3.6,7.4c-1.9,3.9-1.6,8.5,0.9,12.1l2.6,3.9l3.7,5.4l3.7-5.4l2.6-3.9c2.5-3.6,2.9-8.2,0.9-12.1L1808.7,74.4z" class="st0" id="Path_2384_00000075123602107025653930000009669808295676139658_"></path>
				<path d="M1772.5,92.4l-8.8-14.7l-6,15.7
					l-5.9,15.4c-3.1,8.2-1.5,17.5,4.1,24.2l6,7.5l8.4,10.4l6.4-11.4l4.6-8.2c4.4-7.6,4.3-17-0.3-24.5L1772.5,92.4z" class="st0" id="Path_2385_00000010295758851493540010000013406909331424744625_"></path>
				<path d="M1783,294.5
					c-8.5-7.4-13.6-17.9-14.2-29.1c-1.1-19.1,3.3-29.8-18.6-54.2c0,0,0.4,21.1-5.8,37.8C1738.2,265.7,1751.6,295.8,1783,294.5" class="st0" id="Path_2386_00000142177847042731647500000013609018045998347912_"></path>
				<path d="M1764.4,300c0,0-17.1-3.1-32.4-26.2
					c-15.3-23.1-37.5-35.6-66.3-29c0,0,15.7,10.3,31,30C1711.9,294.4,1736.3,306.3,1764.4,300" class="st0" id="Path_2387_00000011753595158303660100000009700344956319092393_"></path>
				<path d="M1778.6,230.1c0,0-4-10.9-14.9-24
					c-10.9-13.1,2.2-34,7.7-40.9c0,0,3.3,7.5,12.4,19.3C1792.8,196.4,1791.4,206.1,1778.6,230.1" class="st0" id="Path_2388_00000074443821472811258740000014479625942413830786_"></path>
				<path d="M1747.3,188c0,0-0.4-3.4,5.8-15.6
					c6.2-12.2,0-28.4-17.1-40.9c-1.6,7.7-3.7,15.3-6.2,22.8C1725.8,165.9,1731.2,176.2,1747.3,188" class="st0" id="Path_2389_00000074433946351975615940000014850104889765378990_"></path>
				<path d="M1699.7,195.5c0,0-1.5-3.2,0.3-16.4
					c1.8-13.2-9.6-27.2-30.2-34.9c1.1,7.7,1.7,15.5,1.7,23.3C1671.7,179.6,1680.4,188.1,1699.7,195.5" class="st0" id="Path_2390_00000148642440625578386800000010091720018474441649_"></path>
				<path d="M1716.9,236.3c0,0-3.1-2.2-9.1-14.4
					c-5.9-12.3-23.9-19.7-46.3-17.8c5.3,6.3,10.3,12.8,14.9,19.6C1683.4,234.2,1695.8,238,1716.9,236.3" class="st0" id="Path_2391_00000132782329837953267420000005926265934042561666_"></path>
				<path d="M1732.3,234.5
					c6-9.8,7.4-21.8,3.6-32.8c-3.9-11.9-22.6-31.2-22.6-31.2S1697.7,214.9,1732.3,234.5" class="st0" id="Path_2392_00000019671906636981140370000004311172099775533956_"></path>
				<path d="M1837.3,92.4l8.8-14.7l6,15.7
					l5.9,15.4c3.1,8.2,1.5,17.5-4.1,24.2l-6,7.5l-8.4,10.4l-6.4-11.4l-4.6-8.2c-4.4-7.6-4.3-17,0.3-24.5L1837.3,92.4z" class="st0" id="Path_2393_00000092439641442213264070000013221594116623204992_"></path>
				<path d="M1826.9,294.5
					c8.5-7.4,13.6-17.9,14.2-29.1c1.1-19.1-3.3-29.8,18.6-54.2c0,0-0.4,21.1,5.8,37.8S1858.2,295.8,1826.9,294.5" class="st0" id="Path_2394_00000145030241931935590420000018049382836922040219_"></path>
				<path d="M1845.5,300c0,0,17.1-3.1,32.4-26.2
					c15.3-23.1,37.5-35.6,66.3-29c0,0-15.7,10.3-31,30S1873.5,306.3,1845.5,300" class="st0" id="Path_2395_00000095328087116432853600000005246716739573665173_"></path>
				<path d="M1831.3,230.1c0,0,4-10.9,14.9-24
					s-2.2-34-7.7-40.9c0,0-3.3,7.5-12.4,19.3C1817.1,196.4,1818.5,206.1,1831.3,230.1" class="st0" id="Path_2396_00000031897850004830057010000002760546679913365950_"></path>
				<path d="M1862.6,188c0,0,0.4-3.4-5.8-15.6
					c-6.2-12.2,0-28.4,17.1-40.9c1.6,7.7,3.7,15.3,6.2,22.8C1884.1,165.9,1878.6,176.2,1862.6,188" class="st0" id="Path_2397_00000085970050601671881470000010396141647026988709_"></path>
				<path d="M1890.8,154c0,0,0.8-2.8-2.4-13.6
					c-3.2-10.8,4.4-23.3,20.5-31.3c0.1,6.5,0.6,13.1,1.6,19.6C1912,138.6,1905.9,146.4,1890.8,154" class="st0" id="Path_2398_00000026876793516542707480000000589610692361358253_"></path>
				<path d="M1893,236.3c0,0,3.1-2.2,9.1-14.4
					c5.9-12.3,23.9-19.7,46.3-17.8c-5.3,6.3-10.3,12.8-14.9,19.6C1926.5,234.2,1914.1,238,1893,236.3" class="st0" id="Path_2399_00000146501027243130930360000002325139646620275844_"></path>
				<path d="M1877.6,234.5
					c-6-9.8-7.4-21.8-3.6-32.8c3.9-11.9,22.6-31.2,22.6-31.2S1912.2,214.9,1877.6,234.5" class="st0" id="Path_2400_00000029725120177192554040000013791972233628300469_"></path>
				<path d="M1720,154c0,0-0.8-2.8,2.4-13.6
					c3.2-10.8-4.4-23.3-20.5-31.3c-0.1,6.5-0.6,13.1-1.6,19.6C1698.9,138.6,1705,146.4,1720,154" class="st0" id="Path_2401_00000045601522817368661730000000942767379953296294_"></path>
				<path d="M1837.4,312.3
					c0,0-12.6,24.9-10.5,101.3c0.9,33.4,14.1,132.5,14.1,132.5h-72c0,0,12.8-92.3,14.1-132.5c2.1-68.3-10.5-101.3-10.5-101.3
					l32.2,10.6L1837.4,312.3z" class="st0" id="Path_2402_00000070839435978426230760000010133186549660003989_"></path>
				<path d="M1804.9,58.4c-1.5-4.8-2.4-9.7-3-14.6
					c-0.5-4.9-0.8-9.7-0.8-14.6s0.3-9.8,0.8-14.6c0.5-5,1.5-9.9,3-14.6c1.5,4.8,2.5,9.7,3,14.6s0.8,9.7,0.8,14.6s-0.3,9.8-0.8,14.6
					C1807.4,48.7,1806.4,53.6,1804.9,58.4" class="st0" id="Path_2403_00000168096188212743509710000013581078894812796338_"></path>
				<path d="M1790.3,71.8c-2-4.5-3.6-9.1-4.7-13.9
					c-2.3-9.4-3.5-18.9-3.6-28.6c-0.1-4.9,0.3-9.8,1.2-14.7c2,4.5,3.6,9.1,4.7,13.9c1.1,4.7,2,9.4,2.6,14.2c0.6,4.8,0.9,9.6,1,14.4
					C1791.5,62.1,1791.1,67,1790.3,71.8" class="st0" id="Path_2404_00000066514065945034544010000002121988107957226687_"></path>
				<path d="M1774.4,68c-2.4-3.6-4.5-7.5-6-11.6
					c-1.6-4-2.9-8-4-12.1c-1.1-4.1-1.9-8.3-2.4-12.5c-0.6-4.3-0.7-8.7-0.3-13.1c2.4,3.6,4.5,7.5,6.1,11.6c1.6,4,2.9,8,4,12.1
					c1.1,4.1,1.9,8.3,2.4,12.5C1774.7,59.3,1774.8,63.7,1774.4,68" class="st0" id="Path_2405_00000052792531302969289050000009689358358516970429_"></path>
				<path d="M1757.5,67.3c-2.7-2.8-5-6-6.9-9.4
					c-1.9-3.3-3.5-6.7-4.9-10.2c-1.4-3.5-2.5-7.1-3.4-10.8c-0.9-3.8-1.4-7.7-1.4-11.6c2.7,2.8,5,6,6.9,9.4c1.9,3.3,3.5,6.7,4.9,10.2
					c1.4,3.5,2.5,7.1,3.4,10.8C1757,59.5,1757.5,63.4,1757.5,67.3" class="st0" id="Path_2406_00000168080650273647227030000001223132650272430726_"></path>
				<path d="M1746.4,80.6c-3.3-3-6.3-6.4-8.9-10
					c-2.6-3.5-4.9-7.2-7-11.1c-2.1-3.8-4-7.8-5.6-11.9c-1.7-4.2-2.9-8.5-3.7-12.9c3.3,3,6.3,6.4,8.9,10c2.6,3.5,4.9,7.2,7,11.1
					c2.1,3.8,4,7.8,5.6,11.9C1744.4,71.8,1745.6,76.2,1746.4,80.6" class="st0" id="Path_2407_00000049213109649239917090000016853953896533914033_"></path>
				<path d="M1739.7,98.1
					c-4.2-3.4-8.1-7.1-11.7-11.2c-3.5-4-6.8-8.1-9.9-12.5c-3.1-4.3-6-8.8-8.6-13.4c-2.7-4.7-5-9.6-6.8-14.7
					c4.2,3.4,8.1,7.1,11.7,11.2c3.5,4,6.8,8.1,9.9,12.5c3.1,4.3,6,8.8,8.6,13.4C1735.6,88.1,1737.9,93.1,1739.7,98.1" class="st0" id="Path_2408_00000106120845009379044650000009054498038265511605_"></path>
				<path d="M1730.9,116.1
					c-4.5-4.1-8.6-8.6-12.4-13.3L1707.3,89l-11.1-13.8c-3.9-4.7-7.3-9.7-10.4-15c5.2,3.2,10.1,6.9,14.7,10.9
					c4.6,4,8.9,8.4,12.7,13.2s7.3,9.8,10.2,15.2C1726.3,104.8,1728.9,110.4,1730.9,116.1" class="st0" id="Path_2409_00000057118071594897850120000009121363162710556290_"></path>
				<path d="M1819.7,71.8
					c-0.9-4.8-1.2-9.7-1.1-14.7c0.1-4.8,0.4-9.6,1-14.4c0.6-4.8,1.4-9.5,2.6-14.2c1.1-4.8,2.7-9.4,4.7-13.9
					c0.9,4.8,1.3,9.7,1.2,14.7c-0.1,4.8-0.4,9.6-1,14.4c-0.6,4.8-1.5,9.5-2.6,14.2C1823.3,62.7,1821.8,67.3,1819.7,71.8" class="st0" id="Path_2410_00000165920744781564196590000001578463996047576204_"></path>
				<path d="M1835.6,68c-0.4-4.4-0.3-8.7,0.3-13.1
					c0.5-4.2,1.3-8.4,2.4-12.5c1.1-4.1,2.4-8.2,4-12.1c1.6-4.1,3.6-8,6.1-11.6c0.4,4.4,0.3,8.7-0.3,13.1c-0.5,4.2-1.3,8.4-2.4,12.5
					c-1.1,4.1-2.4,8.2-4,12.1C1840.1,60.5,1838.1,64.4,1835.6,68" class="st0" id="Path_2411_00000149371980316511910520000012192144988291260308_"></path>
				<path d="M1852.5,67.3c0-3.9,0.5-7.8,1.4-11.6
					c0.9-3.7,2-7.3,3.4-10.8s3-6.9,4.9-10.2c1.9-3.4,4.2-6.6,6.9-9.4c0,3.9-0.5,7.8-1.4,11.6c-0.9,3.7-2,7.3-3.4,10.8
					s-3,6.9-4.9,10.2C1857.5,61.3,1855.2,64.5,1852.5,67.3" class="st0" id="Path_2412_00000132793831944978555200000008120396489980367275_"></path>
				<path d="M1863.6,80.6c0.8-4.4,2-8.7,3.7-12.9
					c1.6-4.1,3.5-8,5.6-11.9c2.1-3.8,4.4-7.5,7-11.1c2.6-3.7,5.6-7,8.9-10c-0.8,4.4-2,8.7-3.7,12.9c-1.6,4.1-3.5,8-5.6,11.9
					c-2.1,3.8-4.5,7.5-7,11.1C1869.9,74.2,1866.9,77.6,1863.6,80.6" class="st0" id="Path_2413_00000051381426895404132420000008086422822841558927_"></path>
				<path d="M1870.3,98.1c1.8-5.1,4.1-10,6.9-14.7
					c2.6-4.6,5.5-9.1,8.6-13.4s6.4-8.5,9.9-12.5c3.5-4.1,7.5-7.8,11.7-11.2c-1.8,5.1-4.1,10-6.8,14.7c-2.6,4.6-5.5,9.1-8.6,13.4
					c-3.1,4.3-6.4,8.5-9.9,12.5C1878.4,91,1874.5,94.7,1870.3,98.1" class="st0" id="Path_2414_00000178196027857178731980000017318712792933629103_"></path>
				<path d="M1879.1,116.1
					c2.1-5.7,4.6-11.3,7.5-16.6c5.9-10.7,13.7-20.3,22.9-28.4c4.6-4,9.5-7.6,14.7-10.9c-3.1,5.3-6.5,10.3-10.4,15L1902.7,89
					l-11.2,13.8C1887.7,107.5,1883.6,112,1879.1,116.1" class="st0" id="Path_2415_00000048502150545960149910000011845155838502751914_"></path>
				<path d="M1910.2,195c0,0,1.5-3.2-0.3-16.4
					c-1.8-13.2,9.6-27.2,30.2-34.9c-1.1,7.7-1.7,15.5-1.7,23.3C1938.2,179.1,1929.5,187.6,1910.2,195" class="st0" id="Path_2416_00000129928305206778435620000008408472312225147780_"></path>
				<path d="M1641.4,344.6c0,0,24.6,9.2,72.9,58.3
					c20.3,20.6,35.9,37.7,45.7,51.6c-6.8-51.7-31.2-95.4-72.4-129.3c-6.5-5.8-13.4-11.2-20.6-16.1c-27.5-18.7-41-48-41-48
					s0,23.8,0.4,26.3c-2.8-1.3-5.4-2.6-8.1-3.9c-12.8-9.2-36.8-31.1-45-54.1c-1.8,7.8-2.9,15.7-3.4,23.7
					c-21.7-17.2-35.5-34.1-44-46.9c1.4,33.1,10,65.5,25,95c-2.7-1.9-18.1-13-23.7-19.4c0,0,9.7,36.5,36.9,62.8
					c15.6,15,33.6,27.2,53.3,36.1c0.5,0.4,0.9,0.7,1.4,1.1l-24.9-2.5c0,0,19.3,20.6,60.2,40.4c32,15.5,59.4,25.9,84.8,44.7
					C1719.7,434.5,1688,386.7,1641.4,344.6" class="st0" id="Path_2417_00000075885398607493879170000007463747412663369868_"></path>
				<path d="M1965.5,344.6c0,0-24.6,9.2-72.9,58.3
					c-20.3,20.6-35.9,37.7-45.7,51.6c6.8-51.7,31.2-95.4,72.4-129.3c6.5-5.8,13.4-11.2,20.6-16.1c27.5-18.7,41-48,41-48
					s0,23.8-0.4,26.3c2.8-1.3,5.4-2.6,8.1-3.9c12.8-9.2,36.8-31.1,45-54.1c1.8,7.8,2.9,15.7,3.4,23.7c21.7-17.1,35.6-34,44.1-46.8
					c-1.4,33.1-10,65.5-25,95c2.7-1.9,18.1-13,23.7-19.4c0,0-9.7,36.5-36.9,62.8c-15.6,15-33.6,27.2-53.3,36.1
					c-0.5,0.4-0.9,0.7-1.4,1.1l24.9-2.5c0,0-19.3,20.6-60.2,40.4c-32,15.5-59.4,25.9-84.8,44.7
					C1887.2,434.5,1919,386.7,1965.5,344.6" class="st0" id="Path_2418_00000070817491162634718810000018394303581997234102_"></path>
			</g>
		</g>
	</g>
</g>
<g id="copyright_00000093890615865873158960000018075930116808675733_">
	<g>
		<text class="st0 st1 st2 st3" transform="matrix(1 0 0 1 80.0571 507.8029)">© Encyclopædia Britannica, Inc.</text>
	</g>
</g>
</svg>
